<?xml version="1.0" standalone="no"?>
<!DOCTYPE svg PUBLIC "-//W3C//DTD SVG 20010904//EN"
 "http://www.w3.org/TR/2001/REC-SVG-20010904/DTD/svg10.dtd">
<svg version="1.0" xmlns="http://www.w3.org/2000/svg"
 width="586.000000pt" height="565.000000pt" viewBox="0 0 586.000000 565.000000"
 preserveAspectRatio="xMidYMid meet">

<g transform="translate(0.000000,565.000000) scale(0.100000,-0.100000)"
fill="#000000" stroke="none">
<path d="M2822 5435 c-30 -7 -79 -26 -111 -42 -84 -43 -2076 -1448 -2143
-1511 -68 -64 -123 -165 -143 -259 -22 -101 -22 -2785 0 -2886 40 -192 212
-361 404 -397 72 -13 1200 -13 1272 0 199 38 376 220 408 420 7 42 11 423 11
1078 l0 1012 420 0 420 0 0 -1012 c0 -655 4 -1036 11 -1078 32 -200 209 -382
408 -420 72 -13 1200 -13 1272 0 192 36 364 205 404 397 22 101 22 2785 0
2886 -20 94 -75 195 -143 259 -75 70 -2068 1473 -2152 1514 -108 54 -224 67
-338 39z m184 -389 c11 -6 474 -330 1029 -721 651 -459 1015 -721 1026 -740
18 -29 19 -86 19 -1403 0 -1499 4 -1407 -57 -1448 -27 -18 -55 -19 -604 -19
-623 0 -609 -1 -646 54 -17 24 -18 101 -23 1196 -5 1107 -6 1172 -23 1198 -10
16 -32 37 -50 47 -31 19 -56 20 -737 20 -681 0 -706 -1 -737 -20 -18 -10 -40
-31 -50 -47 -17 -26 -18 -91 -23 -1198 -5 -1095 -6 -1172 -23 -1196 -37 -55
-23 -54 -646 -54 -549 0 -577 1 -604 19 -61 41 -57 -51 -57 1449 l0 1374 23
32 c26 37 2022 1447 2077 1467 36 13 69 10 106 -10z"/>
</g>
</svg>
